<svg aria-hidden="true" style="position: absolute; width: 0; height: 0; overflow: hidden;" version="1.1" xmlns="http://www.w3.org/2000/svg" xmlns:xlink="http://www.w3.org/1999/xlink">
<defs>
<symbol id="icon-cog" viewBox="0 0 32 32">
<path d="M10.865 31.992c-0.001 0-0.003 0-0.004 0-0.929 0-1.776-0.352-2.415-0.931l0.003 0.003c-0.734-0.662-1.193-1.617-1.193-2.678 0-0.067 0.002-0.133 0.005-0.199l-0 0.009 0.096-1.867c0.001-0.025 0.002-0.055 0.002-0.084 0-0.415-0.158-0.793-0.417-1.077l0.001 0.001c-0.293-0.327-0.718-0.532-1.19-0.532-0.003 0-0.005 0-0.008 0h0c-0.027 0-0.053 0-0.080 0.003l-1.868 0.096c-0.055 0.003-0.12 0.005-0.186 0.005-1.994 0-3.611-1.617-3.611-3.611 0-1.064 0.46-2.020 1.192-2.681l0.003-0.003 1.388-1.253c0.326-0.296 0.531-0.722 0.531-1.196s-0.205-0.901-0.531-1.196l-0.001-0.001-1.388-1.252c-0.727-0.664-1.181-1.616-1.181-2.674 0-0.937 0.356-1.791 0.941-2.434l-0.003 0.003c0.664-0.727 1.615-1.181 2.673-1.181 0.058 0 0.115 0.001 0.172 0.004l-0.008-0 1.872 0.096 0.091 0.003c0.395 0 0.776-0.148 1.072-0.416 0.328-0.296 0.533-0.722 0.533-1.196 0-0.031-0.001-0.063-0.003-0.094l0 0.004-0.096-1.867c-0.003-0.053-0.004-0.115-0.004-0.177 0-1.998 1.62-3.617 3.617-3.617 0 0 0 0 0 0h-0c1.060 0.002 2.013 0.46 2.673 1.189l0.003 0.003 1.252 1.383c0.296 0.328 0.723 0.533 1.198 0.533s0.9-0.204 1.196-0.53l0.001-0.001 1.252-1.388c0.665-0.729 1.618-1.185 2.679-1.185h0c0.002 0 0.005 0 0.007 0 1.99 0 3.604 1.614 3.604 3.604 0 0.064-0.002 0.128-0.005 0.192l0-0.009-0.096 1.869c-0.021 0.429 0.125 0.843 0.415 1.163 0.294 0.326 0.718 0.531 1.19 0.531 0.003 0 0.005 0 0.008-0h-0l0.080-0.001 1.867-0.096c0.064-0.003 0.127-0.005 0.191-0.005 1.994 0.003 3.609 1.619 3.609 3.613 0 1.063-0.459 2.019-1.19 2.68l-0.003 0.003-1.389 1.252c-0.328 0.296-0.533 0.722-0.533 1.196s0.205 0.9 0.532 1.195l0.001 0.001 1.389 1.253c0.716 0.647 1.139 1.532 1.188 2.496 0.003 0.058 0.005 0.126 0.005 0.195 0 0.929-0.353 1.776-0.933 2.413l0.003-0.003c-0.659 0.731-1.609 1.19-2.666 1.193h-0.001c-0.068 0-0.136-0.001-0.204-0.005l-1.864-0.096-0.095-0.003c-0.884 0.003-1.6 0.721-1.6 1.605 0 0.032 0.001 0.064 0.003 0.095l-0-0.004 0.096 1.865c0.003 0.051 0.004 0.111 0.004 0.172 0 1.999-1.62 3.619-3.619 3.619-0 0-0.001 0-0.002 0h0c-1.058-0.002-2.009-0.459-2.668-1.185l-0.003-0.003-1.255-1.391c-0.296-0.327-0.722-0.531-1.196-0.531s-0.901 0.205-1.196 0.531l-0.001 0.001-1.251 1.391c-0.665 0.733-1.621 1.192-2.684 1.192h-0zM5.747 22.637c0.003 0 0.007-0 0.011-0 1.058 0 2.008 0.458 2.665 1.186l0.003 0.003c0.647 0.716 0.976 1.64 0.928 2.603l-0.096 1.868c-0.001 0.026-0.002 0.055-0.002 0.085 0 0.888 0.72 1.608 1.608 1.608 0.001 0 0.003 0 0.004 0h-0c0.457 0 0.893-0.193 1.199-0.532l1.253-1.389c0.662-0.732 1.615-1.189 2.675-1.189 0.002 0 0.003 0 0.005 0h-0c1.021 0 2 0.433 2.683 1.191l1.253 1.389c0.308 0.341 0.735 0.528 1.201 0.528l0.075-0.001c0.855-0.045 1.531-0.749 1.531-1.611 0-0.027-0.001-0.054-0.002-0.081l0 0.004-0.096-1.864c-0.003-0.058-0.005-0.125-0.005-0.193 0-1.060 0.459-2.013 1.189-2.671l0.003-0.003c0.639-0.578 1.49-0.931 2.424-0.931 0.063 0 0.126 0.002 0.189 0.005l-0.009-0 1.959 0.099c0.459 0 0.881-0.189 1.191-0.533 0.259-0.284 0.417-0.664 0.417-1.080 0-0.474-0.205-0.9-0.532-1.194l-0.001-0.001-1.389-1.255c-0.733-0.659-1.192-1.61-1.192-2.669 0-0.069 0.002-0.138 0.006-0.206l-0 0.009c0.049-0.994 0.496-1.875 1.183-2.494l0.003-0.003 1.389-1.253c0.364-0.328 0.557-0.796 0.532-1.285-0.044-0.852-0.746-1.526-1.605-1.526-0.031 0-0.062 0.001-0.093 0.003l0.004-0-1.871 0.096c-0.055 0.003-0.119 0.004-0.183 0.004s-0.129-0.001-0.192-0.004l0.009 0c-0.994-0.049-1.875-0.495-2.494-1.182l-0.003-0.003c-0.579-0.635-0.934-1.484-0.934-2.416 0-0.067 0.002-0.133 0.005-0.199l-0 0.009 0.096-1.868c0.001-0.024 0.002-0.052 0.002-0.080 0-0.471-0.203-0.896-0.527-1.189l-0.001-0.001c-0.285-0.259-0.666-0.418-1.083-0.418-0.473 0-0.898 0.203-1.193 0.527l-1.252 1.388c-0.662 0.733-1.615 1.192-2.676 1.192-0.067 0-0.133-0.002-0.199-0.005l0.009 0c-0.994-0.049-1.874-0.496-2.493-1.183l-0.003-0.003-1.253-1.384c-0.307-0.339-0.743-0.533-1.199-0.533l-0.080 0.001c-0.858 0.051-1.535 0.76-1.535 1.627 0 0.024 0.001 0.049 0.002 0.073l-0-0.003 0.096 1.865c0.003 0.057 0.005 0.124 0.005 0.191 0 1.995-1.617 3.612-3.612 3.612-0.066 0-0.131-0.002-0.195-0.005l0.009 0-1.867-0.096-0.067-0.001c-0.89 0.001-1.611 0.723-1.611 1.613 0 0.471 0.202 0.895 0.523 1.19l0.001 0.001 1.385 1.251c0.733 0.659 1.192 1.611 1.192 2.67 0 0.069-0.002 0.137-0.006 0.205l0-0.009c-0.049 0.994-0.496 1.875-1.183 2.494l-0.003 0.003-1.388 1.253c-0.328 0.296-0.533 0.722-0.533 1.196 0 0.029 0.001 0.057 0.002 0.086l-0-0.004c0.046 0.855 0.75 1.531 1.612 1.531 0.002 0 0.004 0 0.007 0h-0l0.075-0.001 1.863-0.096c0.061-0.003 0.123-0.005 0.184-0.005z"></path>
<path d="M15.999 22.997c-3.86 0-7-3.14-7-7s3.14-7 7-7 7 3.14 7 7-3.14 7-7 7zM15.999 10.997c-2.757 0-5 2.243-5 5s2.243 5 5 5 5-2.243 5-5-2.243-5-5-5z"></path>
</symbol>
<symbol id="icon-menu" viewBox="0 0 42 32">
<path d="M2.526 0c-1.395 0-2.526 1.131-2.526 2.526s1.131 2.526 2.526 2.526h37.053c1.395 0 2.526-1.131 2.526-2.526s-1.131-2.526-2.526-2.526h-37.053zM0 16c0-1.395 1.131-2.526 2.526-2.526h37.053c1.395 0 2.526 1.131 2.526 2.526s-1.131 2.526-2.526 2.526h-37.053c-1.395 0-2.526-1.131-2.526-2.526zM0 29.474c0-1.395 1.131-2.526 2.526-2.526h37.053c1.395 0 2.526 1.131 2.526 2.526s-1.131 2.526-2.526 2.526h-37.053c-1.395 0-2.526-1.131-2.526-2.526z"></path>
</symbol>
<symbol id="icon-close" viewBox="0 0 32 32">
<path fill="#f98c37" style="fill: var(--color1, #f98c37)" d="M31.708 25.708c-0-0-0-0-0-0l-9.708-9.708 9.708-9.708c0-0 0-0 0-0 0.105-0.105 0.18-0.227 0.229-0.357 0.133-0.356 0.057-0.771-0.229-1.057l-4.586-4.586c-0.286-0.286-0.702-0.361-1.057-0.229-0.13 0.048-0.252 0.124-0.357 0.228 0 0-0 0-0 0l-9.708 9.708-9.708-9.708c-0-0-0-0-0-0-0.105-0.104-0.227-0.18-0.357-0.228-0.356-0.133-0.771-0.057-1.057 0.229l-4.586 4.586c-0.286 0.286-0.361 0.702-0.229 1.057 0.049 0.13 0.124 0.252 0.229 0.357 0 0 0 0 0 0l9.708 9.708-9.708 9.708c-0 0-0 0-0 0-0.104 0.105-0.18 0.227-0.229 0.357-0.133 0.355-0.057 0.771 0.229 1.057l4.586 4.586c0.286 0.286 0.702 0.361 1.057 0.229 0.13-0.049 0.252-0.124 0.357-0.229 0-0 0-0 0-0l9.708-9.708 9.708 9.708c0 0 0 0 0 0 0.105 0.105 0.227 0.18 0.357 0.229 0.356 0.133 0.771 0.057 1.057-0.229l4.586-4.586c0.286-0.286 0.362-0.702 0.229-1.057-0.049-0.13-0.124-0.252-0.229-0.357z"></path>
</symbol>
<symbol id="icon-worker" viewBox="0 0 32 32">
<path d="M13.666 0.445c0.51-0.334 1.163-0.445 1.801-0.445h1.067c0.638 0 1.291 0.112 1.801 0.445 0.445 0.291 0.741 0.727 0.834 1.291 2.554 0.904 4.237 3.072 4.529 5.797 0.789 0.218 1.369 0.941 1.369 1.8 0 0.602-0.285 1.137-0.727 1.479 0.449 0.436 0.727 1.046 0.727 1.721 0 1.325-1.075 2.4-2.4 2.4h-0.368c-0.373 1.767-1.075 3.212-2.298 4.155v1.445h2.133c1.11 0 2.057 0.179 2.863 0.498 1.986 0.786 3.004 2.372 3.521 3.914 0.514 1.532 0.549 3.067 0.549 3.855v3.2h-26.133v-3.2c0-0.787 0.036-2.322 0.549-3.855 0.517-1.542 1.535-3.128 3.521-3.914 0.806-0.319 1.753-0.498 2.863-0.498h2.133v-1.444c-1.221-0.922-2.148-2.346-2.561-4.157l-0.639 0c-1.325 0-2.4-1.075-2.4-2.4 0-0.675 0.279-1.285 0.727-1.721-0.442-0.341-0.727-0.877-0.727-1.479 0-0.86 0.581-1.584 1.372-1.801 0.342-2.776 2.519-4.911 5.059-5.797 0.094-0.564 0.39-0.999 0.834-1.29zM12.8 2.888c-2.009 0.826-3.601 2.515-3.94 4.579h13.756c-0.283-2.1-1.53-3.76-3.415-4.573v2.973c0 0.295-0.239 0.533-0.533 0.533s-0.533-0.239-0.533-0.533v-3.733c0-0.418-0.156-0.646-0.384-0.796-0.263-0.172-0.676-0.271-1.216-0.271h-1.067c-0.54 0-0.954 0.099-1.216 0.271-0.228 0.149-0.384 0.377-0.384 0.796v3.733c0 0.295-0.239 0.533-0.533 0.533s-0.533-0.239-0.533-0.533v-2.979zM8.8 11.2c-0.736 0-1.333 0.597-1.333 1.333s0.597 1.333 1.333 1.333l0.453-0c-0.111-0.826-0.167-1.718-0.182-2.667h-0.271zM10.138 11.2c0.019 1.148 0.101 2.187 0.263 3.107 0.333 1.887 1.26 3.267 2.434 4.069 0.767 0.524 1.79 0.824 3.166 0.824s2.399-0.3 3.166-0.824c1.136-0.776 1.824-2.124 2.167-4.069 0.162-0.92 0.244-1.959 0.263-3.107h-11.458zM22.663 11.2c-0.015 0.949-0.072 1.841-0.182 2.667h0.187c0.736 0 1.333-0.597 1.333-1.333s-0.597-1.333-1.333-1.333h-0.004zM13.067 19.719v1.138l2.933 3.159 2.933-3.159v-1.139c-0.83 0.366-1.805 0.548-2.933 0.548s-2.103-0.182-2.933-0.548zM19.699 21.6l-3.166 3.409v5.924h5.067v-1.6c0-0.295 0.239-0.533 0.533-0.533s0.533 0.239 0.533 0.533v1.6h1.6v-9.030c-0.465-0.149-0.995-0.249-1.6-0.287v3.984c0 0.295-0.239 0.533-0.533 0.533s-0.533-0.239-0.533-0.533v-4h-1.901zM25.333 22.385v8.549h2.667v-2.133c0-0.762-0.038-2.154-0.494-3.516-0.379-1.13-1.033-2.207-2.173-2.9zM15.467 30.933v-5.924l-3.166-3.409h-1.901v4c0 0.295-0.239 0.533-0.533 0.533s-0.533-0.239-0.533-0.533v-3.984c-0.605 0.037-1.135 0.138-1.6 0.287v9.030h1.6v-1.6c0-0.295 0.239-0.533 0.533-0.533s0.533 0.239 0.533 0.533v1.6h5.067zM6.667 30.933v-8.549c-1.139 0.693-1.794 1.769-2.173 2.9-0.456 1.362-0.494 2.754-0.494 3.516v2.133h2.667zM22.667 10.133h0.533c0.442 0 0.8-0.358 0.8-0.8s-0.358-0.8-0.8-0.8h-14.933c-0.442 0-0.8 0.358-0.8 0.8s0.358 0.8 0.8 0.8h14.4zM9.867 28c0.14 0 0.278-0.057 0.377-0.156s0.156-0.237 0.156-0.377c0-0.141-0.057-0.278-0.156-0.377s-0.237-0.156-0.377-0.156-0.278 0.057-0.377 0.156c-0.099 0.099-0.156 0.236-0.156 0.377s0.057 0.278 0.156 0.377c0.099 0.099 0.237 0.156 0.377 0.156zM22.51 27.844c-0.099 0.099-0.237 0.156-0.377 0.156s-0.278-0.057-0.377-0.156c-0.099-0.099-0.156-0.237-0.156-0.377s0.057-0.278 0.156-0.377c0.099-0.1 0.237-0.156 0.377-0.156s0.278 0.057 0.377 0.156c0.099 0.099 0.156 0.236 0.156 0.377s-0.057 0.278-0.156 0.377z"></path>
</symbol>
<symbol id="icon-money" viewBox="0 0 32 32">
<path d="M0.533 0h-0.533v13.333c0 0.295 0.239 0.533 0.533 0.533s0.533-0.239 0.533-0.533v-12.267h16.533v5.6h5.6v10.4h-17.333v13.867h-4.8v-12.267c0-0.295-0.239-0.533-0.533-0.533s-0.533 0.239-0.533 0.533v13.333h32v-14.933h-7.733v-11.154l-5.912-5.912h-17.821zM22.446 5.6h-3.779v-3.779l3.779 3.779zM30.933 18.133v12.8h-24v-12.8h24zM4 5.867c-0.295 0-0.533 0.239-0.533 0.533s0.239 0.533 0.533 0.533h2.4c0.295 0 0.533-0.239 0.533-0.533s-0.239-0.533-0.533-0.533h-2.4zM10.133 5.867c-0.295 0-0.533 0.239-0.533 0.533s0.239 0.533 0.533 0.533h3.2c0.295 0 0.533-0.239 0.533-0.533s-0.239-0.533-0.533-0.533h-3.2zM4 9.6c-0.295 0-0.533 0.239-0.533 0.533s0.239 0.533 0.533 0.533h9.333c0.295 0 0.533-0.239 0.533-0.533s-0.239-0.533-0.533-0.533h-9.333zM17.067 9.6c-0.295 0-0.533 0.239-0.533 0.533s0.239 0.533 0.533 0.533h2.667c0.295 0 0.533-0.239 0.533-0.533s-0.239-0.533-0.533-0.533h-2.667zM4 13.333c-0.295 0-0.533 0.239-0.533 0.533s0.239 0.533 0.533 0.533h3.467c0.295 0 0.533-0.239 0.533-0.533s-0.239-0.533-0.533-0.533h-3.467zM11.2 13.333c-0.295 0-0.533 0.239-0.533 0.533s0.239 0.533 0.533 0.533h8.533c0.295 0 0.533-0.239 0.533-0.533s-0.239-0.533-0.533-0.533h-8.533zM11.733 19.733h-0.533v0.533c0 0.674-0.219 1.114-0.547 1.395-0.34 0.292-0.868 0.472-1.586 0.472h-0.533v4.8h0.533c0.718 0 1.246 0.18 1.586 0.472 0.328 0.281 0.547 0.721 0.547 1.395v0.533h15.467v-0.533c0-0.674 0.219-1.114 0.547-1.395 0.34-0.292 0.868-0.472 1.586-0.472h0.533v-4.8h-0.533c-0.718 0-1.246-0.18-1.586-0.472-0.328-0.281-0.547-0.721-0.547-1.395v-0.533h-14.933zM11.347 22.472c0.485-0.416 0.783-0.986 0.882-1.672h13.408c0.1 0.686 0.397 1.256 0.882 1.672 0.471 0.404 1.076 0.626 1.747 0.7v2.724c-0.671 0.074-1.276 0.296-1.747 0.7-0.485 0.416-0.783 0.986-0.882 1.672h-13.408c-0.1-0.686-0.397-1.256-0.882-1.672-0.471-0.404-1.076-0.626-1.747-0.7v-2.724c0.671-0.074 1.276-0.296 1.747-0.7zM17.6 24.533c0-0.736 0.597-1.333 1.333-1.333s1.333 0.597 1.333 1.333c0 0.736-0.597 1.333-1.333 1.333s-1.333-0.597-1.333-1.333zM18.933 22.133c-1.325 0-2.4 1.075-2.4 2.4s1.075 2.4 2.4 2.4c1.325 0 2.4-1.075 2.4-2.4s-1.075-2.4-2.4-2.4zM0.91 16.377c-0.099 0.099-0.237 0.156-0.377 0.156s-0.278-0.057-0.377-0.156c-0.099-0.099-0.156-0.237-0.156-0.377s0.057-0.278 0.156-0.377c0.099-0.1 0.237-0.156 0.377-0.156s0.278 0.057 0.377 0.156c0.099 0.099 0.156 0.236 0.156 0.377s-0.057 0.278-0.156 0.377z"></path>
</symbol>
<symbol id="icon-guarantee" viewBox="0 0 26 32">
<path d="M24.142 17.939c-0.477-0.256-1.043-0.299-1.552-0.116l-5.155 1.85c0.031-0.093 0.054-0.186 0.070-0.283 0.089-0.559-0.066-1.121-0.427-1.544-0.361-0.427-0.888-0.667-1.447-0.667h-2.824c-0.655 0-1.292-0.229-1.831-0.659-1.23-0.981-3.728-2.277-7.001-0.438v-0.652c0-0.45-0.365-0.815-0.815-0.815h-1.908c-0.45 0-0.815 0.365-0.815 0.815v8.161c0 0.45 0.365 0.815 0.815 0.815h1.908c0.45 0 0.815-0.365 0.815-0.815v-0.396c0.621-0.008 2.199 0.081 4.461 0.97 1.451 0.566 2.96 0.853 4.465 0.853 0.834 0 1.668-0.089 2.486-0.268 2.257-0.493 5.628-1.493 8.867-3.475 0.431-0.264 0.741-0.702 0.857-1.202 0.198-0.842-0.198-1.718-0.97-2.133zM3.297 23.587c0 0.074-0.062 0.136-0.136 0.136h-1.908c-0.074 0-0.136-0.062-0.136-0.136v-8.161c0-0.074 0.062-0.136 0.136-0.136h1.908c0.074 0 0.136 0.062 0.136 0.136v8.161zM24.452 19.918c-0.078 0.326-0.275 0.609-0.551 0.776-3.161 1.936-6.454 2.913-8.657 3.394-2.16 0.469-4.43 0.279-6.559-0.555-2.269-0.888-3.879-1.016-4.627-1.016-0.031 0-0.058 0-0.085 0v-5.659c3.099-1.924 5.446-0.714 6.578 0.19 0.652 0.524 1.455 0.811 2.254 0.811h2.824c0.357 0 0.698 0.155 0.931 0.431 0.237 0.275 0.334 0.632 0.271 0.997-0.054 0.341-0.271 0.632-0.57 0.815-0.019 0.008-0.043 0.019-0.058 0.035-0.194 0.105-0.419 0.163-0.655 0.163h-3.968c-0.186 0-0.341 0.151-0.341 0.341s0.151 0.341 0.341 0.341h3.972c0.361 0 0.702-0.093 0.997-0.256l6.276-2.25c0.326-0.116 0.694-0.093 1.012 0.081 0.489 0.252 0.745 0.818 0.617 1.361z"></path>
<path d="M8.293 9.585c0.26 0.244 0.527 0.5 0.597 0.721 0.078 0.241 0.008 0.613-0.058 0.977-0.101 0.562-0.209 1.144 0.116 1.586 0.326 0.446 0.915 0.527 1.486 0.605 0.361 0.050 0.737 0.101 0.935 0.244 0.194 0.14 0.357 0.481 0.512 0.807 0.237 0.5 0.508 1.063 1.040 1.237 0.109 0.035 0.217 0.050 0.322 0.050 0.403 0 0.811-0.217 1.202-0.431 0.33-0.178 0.671-0.361 0.931-0.361s0.601 0.182 0.931 0.361c0.5 0.268 1.012 0.547 1.528 0.38 0.535-0.175 0.803-0.737 1.040-1.237 0.155-0.326 0.318-0.663 0.512-0.807 0.198-0.143 0.574-0.194 0.935-0.244 0.57-0.078 1.16-0.155 1.486-0.601 0.322-0.442 0.217-1.024 0.116-1.586-0.066-0.365-0.132-0.737-0.058-0.977 0.070-0.221 0.341-0.473 0.597-0.721 0.403-0.384 0.861-0.818 0.861-1.389s-0.458-1.005-0.861-1.389c-0.26-0.244-0.527-0.5-0.597-0.721-0.078-0.24-0.008-0.613 0.058-0.977 0.101-0.562 0.209-1.144-0.116-1.586-0.326-0.446-0.915-0.527-1.486-0.605-0.361-0.050-0.737-0.101-0.935-0.244-0.194-0.14-0.357-0.481-0.512-0.807-0.237-0.5-0.508-1.063-1.040-1.237-0.512-0.167-1.028 0.113-1.528 0.38-0.33 0.178-0.671 0.361-0.931 0.361s-0.601-0.182-0.931-0.361c-0.5-0.268-1.016-0.547-1.528-0.38-0.535 0.175-0.803 0.737-1.040 1.237-0.155 0.326-0.318 0.663-0.512 0.807-0.198 0.143-0.574 0.194-0.935 0.244-0.57 0.078-1.16 0.155-1.486 0.605-0.322 0.442-0.217 1.024-0.116 1.586 0.066 0.365 0.132 0.737 0.058 0.977-0.074 0.221-0.341 0.473-0.597 0.721-0.403 0.384-0.861 0.818-0.861 1.389 0 0.566 0.462 1.001 0.865 1.385zM8.758 7.3c0.322-0.303 0.652-0.617 0.776-1.005 0.132-0.399 0.047-0.861-0.035-1.307-0.078-0.423-0.155-0.861-0.004-1.067 0.155-0.213 0.597-0.272 1.028-0.33 0.446-0.058 0.908-0.12 1.245-0.369 0.334-0.24 0.531-0.659 0.725-1.063 0.186-0.392 0.384-0.799 0.64-0.884 0.035-0.012 0.074-0.016 0.113-0.016 0.237 0 0.566 0.178 0.884 0.349 0.403 0.217 0.822 0.442 1.253 0.442s0.849-0.225 1.253-0.442c0.372-0.202 0.756-0.407 0.997-0.33 0.256 0.081 0.45 0.489 0.64 0.884 0.194 0.403 0.392 0.818 0.725 1.063 0.337 0.244 0.799 0.306 1.245 0.369 0.431 0.058 0.873 0.116 1.028 0.33 0.151 0.209 0.074 0.644-0.004 1.067-0.081 0.446-0.163 0.908-0.035 1.307 0.124 0.384 0.458 0.698 0.776 1.005 0.318 0.303 0.652 0.617 0.652 0.896s-0.33 0.593-0.652 0.896c-0.322 0.303-0.652 0.617-0.776 1.005-0.132 0.399-0.047 0.861 0.035 1.307 0.078 0.423 0.155 0.857 0.004 1.067-0.155 0.213-0.597 0.271-1.028 0.33-0.446 0.058-0.908 0.12-1.245 0.368-0.334 0.241-0.531 0.659-0.725 1.063-0.186 0.396-0.384 0.799-0.64 0.884-0.237 0.078-0.625-0.132-0.997-0.33-0.403-0.217-0.822-0.442-1.253-0.442s-0.849 0.225-1.253 0.442c-0.372 0.202-0.756 0.407-0.997 0.33-0.256-0.081-0.45-0.489-0.64-0.884-0.194-0.403-0.392-0.818-0.725-1.063-0.337-0.244-0.799-0.306-1.245-0.368-0.431-0.058-0.873-0.116-1.028-0.33-0.151-0.209-0.074-0.644 0.004-1.067 0.081-0.446 0.163-0.908 0.035-1.307-0.124-0.384-0.458-0.698-0.776-1.005-0.318-0.303-0.652-0.617-0.652-0.896 0-0.283 0.334-0.597 0.652-0.9z"></path>
<path d="M15.379 12.94c2.614 0 4.744-2.129 4.744-4.744s-2.126-4.744-4.744-4.744-4.744 2.129-4.744 4.744 2.129 4.744 4.744 4.744zM15.379 4.131c2.242 0 4.065 1.823 4.065 4.065s-1.823 4.065-4.065 4.065-4.065-1.823-4.065-4.065c0-2.242 1.823-4.065 4.065-4.065z"></path>
<path d="M13.793 10.306c0.209 0.209 0.493 0.326 0.787 0.326s0.578-0.116 0.787-0.326l2.641-2.641c0.209-0.209 0.326-0.493 0.326-0.787s-0.116-0.578-0.326-0.787c-0.434-0.434-1.144-0.434-1.579 0l-1.85 1.85-0.256-0.256c-0.434-0.434-1.14-0.434-1.579 0-0.434 0.434-0.434 1.14 0 1.579l1.047 1.043zM13.231 8.165c0.085-0.085 0.198-0.128 0.31-0.128s0.225 0.043 0.31 0.128l0.496 0.493c0.132 0.132 0.349 0.132 0.481 0l2.091-2.091c0.171-0.171 0.446-0.171 0.617 0 0.081 0.081 0.128 0.19 0.128 0.306s-0.047 0.225-0.128 0.31l-2.641 2.641c-0.163 0.163-0.454 0.163-0.617 0l-1.043-1.043c-0.175-0.171-0.175-0.446-0.004-0.617z"></path>
</symbol>
<symbol id="icon-arrow-right" viewBox="0 0 32 32">
<path fill="#f9f9fb" style="fill: var(--color1, #f9f9fb)" d="M25.011 15.262l-14.942-14.942c-0.214-0.214-0.46-0.321-0.738-0.321s-0.524 0.107-0.738 0.321l-1.603 1.603c-0.214 0.214-0.321 0.459-0.321 0.738s0.107 0.524 0.321 0.737l12.601 12.601-12.601 12.601c-0.214 0.214-0.321 0.46-0.321 0.737s0.107 0.524 0.321 0.738l1.603 1.603c0.214 0.214 0.46 0.321 0.738 0.321s0.524-0.107 0.738-0.321l14.941-14.942c0.214-0.214 0.321-0.46 0.321-0.738s-0.106-0.524-0.32-0.738z"></path>
</symbol>
</defs>
</svg>
