<svg aria-hidden="true" style="position: absolute; width: 0; height: 0; overflow: hidden;" version="1.1" xmlns="http://www.w3.org/2000/svg" xmlns:xlink="http://www.w3.org/1999/xlink">
<defs>
<symbol id="icon-close" viewBox="0 0 32 32">
<path fill="#f98c37" style="fill: var(--color1, #f98c37)" d="M13.757 11.778c-0.189-0.189-0.496-0.189-0.686 0s-0.189 0.496 0 0.686l2.171 2.171-2.171 2.171c-0.189 0.189-0.189 0.496 0 0.686s0.496 0.189 0.686 0l2.171-2.171 2.171 2.171c0.189 0.189 0.496 0.189 0.686 0s0.189-0.496 0-0.686l-2.171-2.171 2.171-2.171c0.189-0.189 0.189-0.496 0-0.686s-0.496-0.189-0.686 0l-2.171 2.171-2.171-2.171z"></path>
</symbol>
<symbol id="icon-menu" viewBox="0 0 42 32">
<path d="M2.526 0c-1.395 0-2.526 1.131-2.526 2.526s1.131 2.526 2.526 2.526h37.053c1.395 0 2.526-1.131 2.526-2.526s-1.131-2.526-2.526-2.526h-37.053zM0 16c0-1.395 1.131-2.526 2.526-2.526h37.053c1.395 0 2.526 1.131 2.526 2.526s-1.131 2.526-2.526 2.526h-37.053c-1.395 0-2.526-1.131-2.526-2.526zM0 29.474c0-1.395 1.131-2.526 2.526-2.526h37.053c1.395 0 2.526 1.131 2.526 2.526s-1.131 2.526-2.526 2.526h-37.053c-1.395 0-2.526-1.131-2.526-2.526z"></path>
</symbol>
</defs>
</svg>
