<svg aria-hidden="true" style="position: absolute; width: 0; height: 0; overflow: hidden;" version="1.1" xmlns="http://www.w3.org/2000/svg" xmlns:xlink="http://www.w3.org/1999/xlink">
<defs>
<symbol id="icon-menu" viewBox="0 0 42 32">
<path d="M2.526 0c-1.395 0-2.526 1.131-2.526 2.526s1.131 2.526 2.526 2.526h37.053c1.395 0 2.526-1.131 2.526-2.526s-1.131-2.526-2.526-2.526h-37.053zM0 16c0-1.395 1.131-2.526 2.526-2.526h37.053c1.395 0 2.526 1.131 2.526 2.526s-1.131 2.526-2.526 2.526h-37.053c-1.395 0-2.526-1.131-2.526-2.526zM0 29.474c0-1.395 1.131-2.526 2.526-2.526h37.053c1.395 0 2.526 1.131 2.526 2.526s-1.131 2.526-2.526 2.526h-37.053c-1.395 0-2.526-1.131-2.526-2.526z"></path>
</symbol>
<symbol id="icon-close" viewBox="0 0 32 32">
<path fill="#f98c37" style="fill: var(--color1, #f98c37)" d="M31.708 25.708c-0-0-0-0-0-0l-9.708-9.708 9.708-9.708c0-0 0-0 0-0 0.105-0.105 0.18-0.227 0.229-0.357 0.133-0.356 0.057-0.771-0.229-1.057l-4.586-4.586c-0.286-0.286-0.702-0.361-1.057-0.229-0.13 0.048-0.252 0.124-0.357 0.228 0 0-0 0-0 0l-9.708 9.708-9.708-9.708c-0-0-0-0-0-0-0.105-0.104-0.227-0.18-0.357-0.228-0.356-0.133-0.771-0.057-1.057 0.229l-4.586 4.586c-0.286 0.286-0.361 0.702-0.229 1.057 0.049 0.13 0.124 0.252 0.229 0.357 0 0 0 0 0 0l9.708 9.708-9.708 9.708c-0 0-0 0-0 0-0.104 0.105-0.18 0.227-0.229 0.357-0.133 0.355-0.057 0.771 0.229 1.057l4.586 4.586c0.286 0.286 0.702 0.361 1.057 0.229 0.13-0.049 0.252-0.124 0.357-0.229 0-0 0-0 0-0l9.708-9.708 9.708 9.708c0 0 0 0 0 0 0.105 0.105 0.227 0.18 0.357 0.229 0.356 0.133 0.771 0.057 1.057-0.229l4.586-4.586c0.286-0.286 0.362-0.702 0.229-1.057-0.049-0.13-0.124-0.252-0.229-0.357z"></path>
</symbol>
</defs>
</svg>
